<svg width="64" height="64" viewBox="0 0 64 64" fill="none" xmlns="http://www.w3.org/2000/svg">
<g clip-path="url(#clip0_11_583)">
<path fill-rule="evenodd" clip-rule="evenodd" d="M28.1308 25.9994H34.3138V29.1677H34.4098C35.2739 27.6124 37.3861 25.9994 40.5161 25.9994C47.0447 25.9994 48.2544 30.0702 48.2544 35.3699V46.1422H41.8026V36.5797C41.8026 34.2946 41.7642 31.3759 38.4422 31.3759C35.0819 31.3759 34.5635 33.853 34.5635 36.426V46.1422H28.1116V25.9994H28.1308ZM32.0096 0C40.8425 0 48.8497 3.59076 54.6487 9.37054C60.4476 15.1695 64.0192 23.1575 64.0192 32.0096C64.0192 40.8425 60.4284 48.8497 54.6487 54.6487C48.8497 60.4476 40.8617 64.0192 32.0096 64.0192C23.1767 64.0192 15.1695 60.4284 9.37054 54.6487C3.57156 48.8497 0 40.8617 0 32.0096C0 23.1767 3.59076 15.1695 9.37054 9.37054C15.1695 3.57156 23.1575 0 32.0096 0ZM52.9973 11.0027C47.6208 5.62616 40.2088 2.30423 32.0096 2.30423C23.8104 2.30423 16.3792 5.62616 11.0219 11.0027C5.64536 16.3792 2.32343 23.7912 2.32343 31.9904C2.32343 40.1896 5.64536 47.6208 11.0219 52.9781C16.3984 58.3546 23.8104 61.6766 32.0096 61.6766C40.2088 61.6766 47.64 58.3546 52.9973 52.9781C58.3738 47.6016 61.6958 40.1896 61.6958 31.9904C61.6958 23.7912 58.3738 16.36 52.9973 11.0027ZM23.6568 20.4116C23.6568 22.2742 22.159 23.772 20.2964 23.772C18.4338 23.772 16.9361 22.2742 16.9361 20.4116C16.9361 18.5491 18.4338 17.0513 20.2964 17.0513C22.159 17.0513 23.6568 18.5491 23.6568 20.4116ZM16.9361 25.9994H23.6568V46.1422H16.9361V25.9994Z" fill="#FEC684"/>
</g>
<defs>
<clipPath id="clip0_11_583">
<rect width="64" height="64" fill="white"/>
</clipPath>
</defs>
</svg>
