<svg width="50" height="50" viewBox="0 0 50 50" fill="none" xmlns="http://www.w3.org/2000/svg">
<g clip-path="url(#clip0_7_13)">
<path fill-rule="evenodd" clip-rule="evenodd" d="M21.9772 20.312H26.8077V22.7873H26.8827C27.5578 21.5722 29.2079 20.312 31.6532 20.312C36.7537 20.312 37.6988 23.4923 37.6988 27.6328V36.0486H32.6583V28.5779C32.6583 26.7927 32.6283 24.5125 30.033 24.5125C27.4077 24.5125 27.0027 26.4476 27.0027 28.4578V36.0486H21.9622V20.312H21.9772ZM25.0075 0C31.9082 0 38.1638 2.80528 42.6943 7.32073C47.2247 11.8512 50.015 18.0918 50.015 25.0075C50.015 31.9082 47.2097 38.1638 42.6943 42.6943C38.1638 47.2247 31.9232 50.015 25.0075 50.015C18.1068 50.015 11.8512 47.2097 7.32073 42.6943C2.79028 38.1638 0 31.9232 0 25.0075C0 18.1068 2.80528 11.8512 7.32073 7.32073C11.8512 2.79028 18.0918 0 25.0075 0ZM41.4041 8.59586C37.2037 4.39544 31.4131 1.80018 25.0075 1.80018C18.6019 1.80018 12.7963 4.39544 8.61086 8.59586C4.41044 12.7963 1.81518 18.5869 1.81518 24.9925C1.81518 31.3981 4.41044 37.2037 8.61086 41.3891C12.8113 45.5896 18.6019 48.1848 25.0075 48.1848C31.4131 48.1848 37.2187 45.5896 41.4041 41.3891C45.6046 37.1887 48.1998 31.3981 48.1998 24.9925C48.1998 18.5869 45.6046 12.7813 41.4041 8.59586ZM18.4818 15.9466C18.4818 17.4017 17.3117 18.5719 15.8566 18.5719C14.4014 18.5719 13.2313 17.4017 13.2313 15.9466C13.2313 14.4915 14.4014 13.3213 15.8566 13.3213C17.3117 13.3213 18.4818 14.4915 18.4818 15.9466ZM13.2313 20.312H18.4818V36.0486H13.2313V20.312Z" fill="#FEC684"/>
</g>
<defs>
<clipPath id="clip0_7_13">
<rect width="50" height="50" fill="white"/>
</clipPath>
</defs>
</svg>
