<svg width="50" height="50" viewBox="0 0 50 50" fill="none" xmlns="http://www.w3.org/2000/svg">
<g clip-path="url(#clip0_7_15)">
<path fill-rule="evenodd" clip-rule="evenodd" d="M35.1185 14.6715C32.5982 12.1362 29.2379 10.7411 25.6526 10.7411C18.2868 10.7411 12.2862 16.7417 12.2862 24.1224C12.2862 26.4776 12.9013 28.7879 14.0714 30.8131L12.1662 37.7438L19.2619 35.8836C21.2121 36.9487 23.4173 37.5188 25.6526 37.5188C33.0183 37.5188 39.0339 31.5182 39.0339 24.1374C39.0339 20.5671 37.6388 17.2067 35.1185 14.6715ZM24.9925 0C31.8932 0 38.1488 2.80528 42.6793 7.32073C47.2097 11.8512 50 18.0918 50 25.0075C50 31.9082 47.1947 38.1638 42.6793 42.6943C38.1488 47.2247 31.9082 50.015 24.9925 50.015C18.0918 50.015 11.8362 47.2097 7.30572 42.6943C2.77526 38.1638 -0.0150146 31.9232 -0.0150146 25.0075C-0.0150146 18.1068 2.79027 11.8512 7.30572 7.32073C11.8362 2.79028 18.0768 0 24.9925 0ZM41.3891 8.59586C37.1887 4.39544 31.3981 1.80018 24.9925 1.80018C18.5868 1.80018 12.7813 4.39544 8.59585 8.59586C4.39543 12.7963 1.80017 18.5869 1.80017 24.9925C1.80017 31.3981 4.39543 37.2037 8.59585 41.3891C12.7963 45.5896 18.5868 48.1848 24.9925 48.1848C31.3981 48.1848 37.2037 45.5896 41.3891 41.3891C45.5896 37.1887 48.1848 31.3981 48.1848 24.9925C48.1848 18.5869 45.5896 12.7813 41.3891 8.59586ZM25.6526 35.2535C23.6574 35.2535 21.6922 34.7135 19.997 33.7084L19.5919 33.4683L15.3765 34.5635L16.5016 30.468L16.2316 30.048C15.1065 28.2778 14.5214 26.2376 14.5214 24.1374C14.5214 18.0018 19.5169 13.0213 25.6526 13.0213C28.6229 13.0213 31.4131 14.1764 33.5133 16.2766C35.6135 18.3768 36.7687 21.1671 36.7687 24.1374C36.7687 30.273 31.7732 35.2685 25.6526 35.2685V35.2535ZM31.7432 26.9277C31.4131 26.7627 29.763 25.9526 29.4629 25.8476C29.1629 25.7426 28.9379 25.6826 28.7129 26.0126C28.4878 26.3426 27.8428 27.0927 27.6478 27.3177C27.4527 27.5428 27.2577 27.5728 26.9277 27.4077C26.5976 27.2427 25.5175 26.8827 24.2424 25.7426C23.2523 24.8575 22.5772 23.7624 22.3822 23.4323C22.1872 23.1023 22.3672 22.9223 22.5322 22.7573C22.6823 22.6073 22.8623 22.3672 23.0273 22.1722C23.1923 21.9772 23.2523 21.8422 23.3573 21.6172C23.4623 21.3921 23.4173 21.1971 23.3273 21.0321C23.2373 20.8671 22.5772 19.2169 22.2922 18.5419C22.0222 17.8818 21.7372 17.9718 21.5421 17.9718C21.3471 17.9568 21.1221 17.9568 20.8971 17.9568C20.6721 17.9568 20.312 18.0468 20.012 18.3768C19.712 18.7069 18.8419 19.517 18.8419 21.1671C18.8419 22.8173 20.042 24.3924 20.207 24.6325C20.372 24.8575 22.5622 28.2328 25.9226 29.673C26.7177 30.018 27.3477 30.228 27.8278 30.378C28.6229 30.6331 29.3579 30.5881 29.928 30.5131C30.573 30.423 31.9082 29.703 32.1932 28.9229C32.4782 28.1428 32.4782 27.4677 32.3882 27.3327C32.3132 27.1827 32.0882 27.1077 31.7432 26.9277Z" fill="#FEC684"/>
</g>
<defs>
<clipPath id="clip0_7_15">
<rect width="50" height="50" fill="white"/>
</clipPath>
</defs>
</svg>
