<svg width="64" height="64" viewBox="0 0 64 64" fill="none" xmlns="http://www.w3.org/2000/svg">
<g opacity="0.64" clip-path="url(#clip0_11_585)">
<path fill-rule="evenodd" clip-rule="evenodd" d="M44.9519 18.7795C41.7259 15.5344 37.4247 13.7486 32.8354 13.7486C23.4073 13.7486 15.7265 21.4293 15.7265 30.8767C15.7265 33.8914 16.5138 36.8485 18.0116 39.4407L15.5729 48.312L24.6554 45.931C27.1517 47.2943 29.9744 48.024 32.8354 48.024C42.2636 48.024 49.9636 40.3432 49.9636 30.8959C49.9636 26.3258 48.1778 22.0246 44.9519 18.7795ZM31.9906 0C40.8234 0 48.8306 3.59076 54.6296 9.37054C60.4286 15.1695 64.0002 23.1575 64.0002 32.0096C64.0002 40.8425 60.4094 48.8497 54.6296 54.6487C48.8306 60.4476 40.8426 64.0192 31.9906 64.0192C23.1577 64.0192 15.1505 60.4284 9.35149 54.6487C3.55251 48.8497 -0.019043 40.8617 -0.019043 32.0096C-0.019043 23.1767 3.57172 15.1695 9.35149 9.37054C15.1505 3.57156 23.1385 0 31.9906 0ZM52.9783 11.0027C47.6017 5.62616 40.1898 2.30423 31.9906 2.30423C23.7913 2.30423 16.3602 5.62616 11.0029 11.0027C5.62632 16.3792 2.30439 23.7912 2.30439 31.9904C2.30439 40.1896 5.62632 47.6208 11.0029 52.9781C16.3794 58.3546 23.7913 61.6766 31.9906 61.6766C40.1898 61.6766 47.6209 58.3546 52.9783 52.9781C58.3548 47.6016 61.6767 40.1896 61.6767 31.9904C61.6767 23.7912 58.3548 16.36 52.9783 11.0027ZM32.8354 45.1245C30.2816 45.1245 27.7661 44.4332 25.5963 43.1467L25.0779 42.8395L19.6821 44.2412L21.1223 38.9991L20.7766 38.4614C19.3365 36.1956 18.5876 33.5842 18.5876 30.8959C18.5876 23.0423 24.9819 16.6673 32.8354 16.6673C36.6374 16.6673 40.209 18.1458 42.8973 20.8341C45.5855 23.5224 47.0641 27.0939 47.0641 30.8959C47.0641 38.7495 40.6698 45.1437 32.8354 45.1437V45.1245ZM40.6314 34.4674C40.209 34.2562 38.0968 33.2193 37.7127 33.0849C37.3287 32.9505 37.0407 32.8737 36.7526 33.2961C36.4646 33.7186 35.6389 34.6787 35.3893 34.9667C35.1397 35.2547 34.89 35.2931 34.4676 35.0819C34.0452 34.8707 32.6626 34.4098 31.0305 32.9505C29.7631 31.8176 28.8991 30.4158 28.6494 29.9934C28.3998 29.571 28.6302 29.3405 28.8414 29.1293C29.0335 28.9373 29.2639 28.6301 29.4751 28.3804C29.6863 28.1308 29.7631 27.958 29.8976 27.67C30.032 27.3819 29.9744 27.1323 29.8591 26.9211C29.7439 26.7099 28.8991 24.5977 28.5342 23.7336C28.1886 22.8887 27.8237 23.0039 27.5741 23.0039C27.3245 22.9847 27.0365 22.9847 26.7484 22.9847C26.4604 22.9847 25.9996 23.0999 25.6155 23.5224C25.2315 23.9448 24.1178 24.9817 24.1178 27.0939C24.1178 29.2061 25.6539 31.2223 25.8651 31.5296C26.0764 31.8176 28.8798 36.138 33.1811 37.9814C34.1988 38.423 35.0053 38.6919 35.6197 38.8839C36.6374 39.2103 37.5783 39.1527 38.308 39.0567C39.1337 38.9415 40.8426 38.0198 41.2075 37.0213C41.5723 36.0228 41.5723 35.1587 41.4571 34.9859C41.3611 34.7939 41.0731 34.6979 40.6314 34.4674Z" fill="#FEC684"/>
</g>
<defs>
<clipPath id="clip0_11_585">
<rect width="64" height="64" fill="white"/>
</clipPath>
</defs>
</svg>
