<svg width="80" height="80" viewBox="0 0 80 80" fill="none" xmlns="http://www.w3.org/2000/svg">
<g clip-path="url(#clip0_8_46)">
<path d="M40 3.93794e-05C49.2578 -0.0026069 58.23 3.20502 65.3878 9.07632C72.5456 14.9476 77.446 23.1193 79.254 32.1988C81.062 41.2783 79.6656 50.7038 75.3029 58.8691C70.9402 67.0345 63.8811 73.4344 55.3285 76.9783C46.7759 80.5222 37.2591 80.9908 28.3997 78.3042C19.5403 75.6176 11.8867 69.9421 6.74295 62.2448C1.59922 54.5475 -0.716271 45.3047 0.191044 36.0915C1.09836 26.8784 5.17234 18.2648 11.7187 11.7188C15.4276 7.99762 19.8356 5.04655 24.6892 3.03539C29.5428 1.02422 34.7462 -0.00734625 40 3.93794e-05ZM20.9766 51.6862L33.9193 38.711L20.9766 28.1576V51.6862ZM35.3451 39.8698L21.9987 53.2487H57.8841L45.1367 39.8698L40.931 43.4571C40.7657 43.5925 40.5587 43.6665 40.3451 43.6665C40.1314 43.6665 39.9244 43.5925 39.7591 43.4571L35.3451 39.8568V39.8698ZM46.5299 38.6849L59.0234 51.7904V28.0404L46.5299 38.6849ZM22.1354 26.7513L40.2995 41.569L57.7148 26.7513H22.1354ZM64.7135 15.267C58.9915 9.54667 51.4632 5.98725 43.4111 5.19511C35.359 4.40297 27.2814 6.42713 20.5543 10.9227C13.8273 15.4183 8.86702 22.1072 6.51862 29.8499C4.17022 37.5925 4.57897 45.9099 7.67522 53.3849C10.7715 60.86 16.3637 67.0303 23.4991 70.8447C30.6345 74.659 38.8717 75.8814 46.8073 74.3035C54.7429 72.7257 61.886 68.4453 67.0196 62.1915C72.1532 55.9377 74.9597 48.0975 74.9609 40.0066C74.9673 35.411 74.0653 30.8596 72.3067 26.6139C70.5481 22.3682 67.9676 18.512 64.7135 15.267Z" fill="#FFDF9D"/>
</g>
<defs>
<clipPath id="clip0_8_46">
<rect width="80" height="80" fill="white"/>
</clipPath>
</defs>
</svg>
