<svg width="80" height="80" viewBox="0 0 80 80" fill="none" xmlns="http://www.w3.org/2000/svg">
<g clip-path="url(#clip0_8_48)">
<path fill-rule="evenodd" clip-rule="evenodd" d="M56.1896 23.4743C52.1572 19.4179 46.7807 17.1857 41.0441 17.1857C29.2589 17.1857 19.658 26.7867 19.658 38.5959C19.658 42.3642 20.6421 46.0606 22.5143 49.3009L19.4659 60.39L30.8191 57.4137C33.9394 59.1179 37.4677 60.03 41.0441 60.03C52.8293 60.03 62.4542 50.429 62.4542 38.6199C62.4542 32.9073 60.222 27.5308 56.1896 23.4743ZM39.988 0C51.0291 0 61.0381 4.48845 68.2868 11.7132C75.5356 18.9619 80 28.9469 80 40.012C80 51.0531 75.5116 61.0621 68.2868 68.3108C61.0381 75.5596 51.0531 80.024 39.988 80.024C28.9469 80.024 18.9379 75.5356 11.6892 68.3108C4.44044 61.0621 -0.0240021 51.0771 -0.0240021 40.012C-0.0240021 28.9709 4.46445 18.9619 11.6892 11.7132C18.9379 4.46445 28.9229 0 39.988 0ZM66.2226 13.7534C59.5019 7.0327 50.237 2.88029 39.988 2.88029C29.739 2.88029 20.45 7.0327 13.7534 13.7534C7.0327 20.474 2.88029 29.739 2.88029 39.988C2.88029 50.237 7.0327 59.526 13.7534 66.2226C20.474 72.9433 29.739 77.0957 39.988 77.0957C50.237 77.0957 59.526 72.9433 66.2226 66.2226C72.9433 59.5019 77.0957 50.237 77.0957 39.988C77.0957 29.739 72.9433 20.45 66.2226 13.7534ZM41.0441 56.4056C37.8518 56.4056 34.7075 55.5416 31.9952 53.9334L31.3471 53.5494L24.6025 55.3015L26.4026 48.7489L25.9706 48.0768C24.1704 45.2445 23.2343 41.9802 23.2343 38.6199C23.2343 28.8029 31.2271 20.8341 41.0441 20.8341C45.7966 20.8341 50.261 22.6823 53.6214 26.0426C56.9817 29.4029 58.8299 33.8674 58.8299 38.6199C58.8299 48.4368 50.8371 56.4296 41.0441 56.4296V56.4056ZM50.7891 43.0843C50.261 42.8203 47.6208 41.5242 47.1407 41.3561C46.6607 41.1881 46.3006 41.0921 45.9406 41.6202C45.5806 42.1482 44.5485 43.3483 44.2364 43.7084C43.9244 44.0684 43.6124 44.1164 43.0843 43.8524C42.5563 43.5884 40.8281 43.0123 38.7879 41.1881C37.2037 39.772 36.1236 38.0198 35.8116 37.4917C35.4995 36.9637 35.7876 36.6757 36.0516 36.4116C36.2916 36.1716 36.5797 35.7876 36.8437 35.4755C37.1077 35.1635 37.2037 34.9475 37.3717 34.5875C37.5398 34.2274 37.4677 33.9154 37.3237 33.6514C37.1797 33.3873 36.1236 30.7471 35.6676 29.667C35.2355 28.6109 34.7795 28.7549 34.4674 28.7549C34.1554 28.7309 33.7954 28.7309 33.4353 28.7309C33.0753 28.7309 32.4992 28.8749 32.0192 29.4029C31.5392 29.931 30.147 31.2271 30.147 33.8674C30.147 36.5076 32.0672 39.0279 32.3312 39.4119C32.5953 39.772 36.0996 45.1725 41.4761 47.4767C42.7483 48.0288 43.7564 48.3648 44.5245 48.6049C45.7966 49.0129 46.9727 48.9409 47.8848 48.8209C48.9169 48.6769 51.0531 47.5247 51.5091 46.2766C51.9652 45.0285 51.9652 43.9484 51.8212 43.7324C51.7012 43.4923 51.3411 43.3723 50.7891 43.0843Z" fill="#FFDF9D"/>
</g>
<defs>
<clipPath id="clip0_8_48">
<rect width="80" height="80" fill="white"/>
</clipPath>
</defs>
</svg>
